<svg xmlns="http://www.w3.org/2000/svg" width="760" height="390" viewBox="0 0 760 390" role="img" aria-labelledby="t d" font-family='system-ui, -apple-system, "Segoe UI", Helvetica, Arial, sans-serif'>
<title id="t">Undetected faults by class</title><desc id="d">Stacked bars of identified-redundant and aborted faults per circuit, with reported fault coverage.</desc>
<rect width="760" height="390" fill="#fcfcfb"/>
<text x="24.0" y="32.0" font-size="17" fill="#0b0b0b" text-anchor="start" font-weight="600">Why Coverage Is Below 100%: Undetected Faults by Class</text>
<text x="24.0" y="54.0" font-size="12.5" fill="#52514e" text-anchor="start" font-weight="normal">Coverage derived from reported/project results; detected = collapsed - redundant - aborted</text>
<rect x="150" y="72" width="12" height="12" rx="2" fill="#2a78d6"/>
<text x="168.0" y="82.0" font-size="12" fill="#52514e" text-anchor="start" font-weight="normal">Identified redundant</text>
<rect x="320" y="72" width="12" height="12" rx="2" fill="#eb6834"/>
<text x="338.0" y="82.0" font-size="12" fill="#52514e" text-anchor="start" font-weight="normal">Aborted (backtrack limit)</text>
<line x1="150.0" y1="98.0" x2="150.0" y2="304.0" stroke="#e1e0d9" stroke-width="1"/>
<text x="150.0" y="322.0" font-size="11" fill="#898781" text-anchor="middle" font-weight="normal">0</text>
<line x1="272.5" y1="98.0" x2="272.5" y2="304.0" stroke="#e1e0d9" stroke-width="1"/>
<text x="272.5" y="322.0" font-size="11" fill="#898781" text-anchor="middle" font-weight="normal">40</text>
<line x1="395.0" y1="98.0" x2="395.0" y2="304.0" stroke="#e1e0d9" stroke-width="1"/>
<text x="395.0" y="322.0" font-size="11" fill="#898781" text-anchor="middle" font-weight="normal">80</text>
<line x1="517.5" y1="98.0" x2="517.5" y2="304.0" stroke="#e1e0d9" stroke-width="1"/>
<text x="517.5" y="322.0" font-size="11" fill="#898781" text-anchor="middle" font-weight="normal">120</text>
<line x1="640.0" y1="98.0" x2="640.0" y2="304.0" stroke="#e1e0d9" stroke-width="1"/>
<text x="640.0" y="322.0" font-size="11" fill="#898781" text-anchor="middle" font-weight="normal">160</text>
<text x="395.0" y="340.0" font-size="11.5" fill="#52514e" text-anchor="middle" font-weight="normal">Collapsed stuck-at faults not detected</text>
<text x="704.0" y="92.0" font-size="11" fill="#898781" text-anchor="middle" font-weight="normal">Fault coverage</text>
<text x="136.0" y="123.0" font-size="13" fill="#0b0b0b" text-anchor="end" font-weight="600">C880</text>
<text x="136.0" y="138.0" font-size="11" fill="#898781" text-anchor="end" font-weight="normal">942 faults</text>
<text x="158.0" y="128.0" font-size="12" fill="#0b0b0b" text-anchor="start" font-weight="normal">0</text>
<text x="704.0" y="128.0" font-size="12" fill="#0b0b0b" text-anchor="middle" font-weight="normal">100.000%</text>
<text x="136.0" y="163.0" font-size="13" fill="#0b0b0b" text-anchor="end" font-weight="600">C3540</text>
<text x="136.0" y="178.0" font-size="11" fill="#898781" text-anchor="end" font-weight="normal">3,428 faults</text>
<path d="M150.0,152.0 H565.6 Q569.6,152.0 569.6,156.0 V170.0 Q569.6,174.0 565.6,174.0 H150.0 Z" fill="#2a78d6"><title>C3540: 137 redundant</title></path>
<text x="577.6" y="168.0" font-size="12" fill="#0b0b0b" text-anchor="start" font-weight="normal">137</text>
<text x="704.0" y="168.0" font-size="12" fill="#0b0b0b" text-anchor="middle" font-weight="normal">96.004%</text>
<text x="136.0" y="203.0" font-size="13" fill="#0b0b0b" text-anchor="end" font-weight="600">C5315</text>
<text x="136.0" y="218.0" font-size="11" fill="#898781" text-anchor="end" font-weight="normal">5,350 faults</text>
<path d="M150.0,192.0 H326.7 Q330.7,192.0 330.7,196.0 V210.0 Q330.7,214.0 326.7,214.0 H150.0 Z" fill="#2a78d6"><title>C5315: 59 redundant</title></path>
<text x="338.7" y="208.0" font-size="12" fill="#0b0b0b" text-anchor="start" font-weight="normal">59</text>
<text x="704.0" y="208.0" font-size="12" fill="#0b0b0b" text-anchor="middle" font-weight="normal">98.897%</text>
<text x="136.0" y="243.0" font-size="13" fill="#0b0b0b" text-anchor="end" font-weight="600">C6288</text>
<text x="136.0" y="258.0" font-size="11" fill="#898781" text-anchor="end" font-weight="normal">7,744 faults</text>
<path d="M150.0,232.0 H250.1 Q254.1,232.0 254.1,236.0 V250.0 Q254.1,254.0 250.1,254.0 H150.0 Z" fill="#2a78d6"><title>C6288: 34 redundant</title></path>
<text x="262.1" y="248.0" font-size="12" fill="#0b0b0b" text-anchor="start" font-weight="normal">34</text>
<text x="704.0" y="248.0" font-size="12" fill="#0b0b0b" text-anchor="middle" font-weight="normal">99.561%</text>
<text x="136.0" y="283.0" font-size="13" fill="#0b0b0b" text-anchor="end" font-weight="600">C7552</text>
<text x="136.0" y="298.0" font-size="11" fill="#898781" text-anchor="end" font-weight="normal">7,550 faults</text>
<path d="M150.0,272.0 H361.4 Q365.4,272.0 365.4,276.0 V290.0 Q365.4,294.0 361.4,294.0 H150.0 Z" fill="#2a78d6"><title>C7552: 71 redundant</title></path>
<path d="M367.4,272.0 H550.2 Q554.2,272.0 554.2,276.0 V290.0 Q554.2,294.0 550.2,294.0 H367.4 Z" fill="#eb6834"><title>C7552: 61 aborted</title></path>
<text x="562.2" y="288.0" font-size="12" fill="#0b0b0b" text-anchor="start" font-weight="normal">71 + 61</text>
<text x="704.0" y="288.0" font-size="12" fill="#0b0b0b" text-anchor="middle" font-weight="normal">98.252%</text>
<text x="24.0" y="360.0" font-size="11" fill="#898781" text-anchor="start" font-weight="normal">Every undetected fault was identified as redundant, except the 61 aborted faults in C7552.</text>
<text x="24.0" y="376.0" font-size="11" fill="#898781" text-anchor="start" font-weight="normal">Source: Atalanta summaries, transcribed in atpg-benchmarks/results/atalanta_summary.csv. Derived chart, not a tool screenshot.</text>
</svg>
