<svg xmlns="http://www.w3.org/2000/svg" width="960" height="420" viewBox="0 0 960 420" font-family="Helvetica, Arial, sans-serif">
<title>Scan chain lengths</title>
<rect width="960" height="420" fill="#ffffff"/>
<text x="24" y="34" font-size="20" font-weight="bold" fill="#1f2933">Scan chain length (scan cells per chain)</text>
<text x="24" y="56" font-size="13" fill="#52606d">Source: Tessent report_scan_chains. Axis starts at zero; the 1-cell spread is 0.2 % of the longest chain.</text>
<line x1="150.0" y1="80" x2="150.0" y2="334" stroke="#e4e7eb" stroke-width="1"/>
<text x="150.0" y="354" font-size="12" fill="#7b8794" text-anchor="middle">0</text>
<line x1="270.0" y1="80" x2="270.0" y2="334" stroke="#e4e7eb" stroke-width="1"/>
<text x="270.0" y="354" font-size="12" fill="#7b8794" text-anchor="middle">100</text>
<line x1="390.0" y1="80" x2="390.0" y2="334" stroke="#e4e7eb" stroke-width="1"/>
<text x="390.0" y="354" font-size="12" fill="#7b8794" text-anchor="middle">200</text>
<line x1="510.0" y1="80" x2="510.0" y2="334" stroke="#e4e7eb" stroke-width="1"/>
<text x="510.0" y="354" font-size="12" fill="#7b8794" text-anchor="middle">300</text>
<line x1="630.0" y1="80" x2="630.0" y2="334" stroke="#e4e7eb" stroke-width="1"/>
<text x="630.0" y="354" font-size="12" fill="#7b8794" text-anchor="middle">400</text>
<line x1="750.0" y1="80" x2="750.0" y2="334" stroke="#e4e7eb" stroke-width="1"/>
<text x="750.0" y="354" font-size="12" fill="#7b8794" text-anchor="middle">500</text>
<text x="138" y="108.0" font-size="14" font-family="DejaVu Sans Mono, Menlo, Consolas, monospace" fill="#1f2933" text-anchor="end">chain0</text>
<path d="M150,86 H702.8 Q706.8,86 706.8,90 V116 Q706.8,120 702.8,120 H150 Z" fill="#2563eb"/>
<text x="716.8" y="108.0" font-size="14" font-weight="bold" fill="#1f2933">464</text>
<text x="138" y="160.0" font-size="14" font-family="DejaVu Sans Mono, Menlo, Consolas, monospace" fill="#1f2933" text-anchor="end">chain1</text>
<path d="M150,138 H702.8 Q706.8,138 706.8,142 V168 Q706.8,172 702.8,172 H150 Z" fill="#2563eb"/>
<text x="716.8" y="160.0" font-size="14" font-weight="bold" fill="#1f2933">464</text>
<text x="138" y="212.0" font-size="14" font-family="DejaVu Sans Mono, Menlo, Consolas, monospace" fill="#1f2933" text-anchor="end">chain2</text>
<path d="M150,190 H702.8 Q706.8,190 706.8,194 V220 Q706.8,224 702.8,224 H150 Z" fill="#2563eb"/>
<text x="716.8" y="212.0" font-size="14" font-weight="bold" fill="#1f2933">464</text>
<text x="138" y="264.0" font-size="14" font-family="DejaVu Sans Mono, Menlo, Consolas, monospace" fill="#1f2933" text-anchor="end">chain3</text>
<path d="M150,242 H702.8 Q706.8,242 706.8,246 V272 Q706.8,276 702.8,276 H150 Z" fill="#2563eb"/>
<text x="716.8" y="264.0" font-size="14" font-weight="bold" fill="#1f2933">464</text>
<text x="138" y="316.0" font-size="14" font-family="DejaVu Sans Mono, Menlo, Consolas, monospace" fill="#1f2933" text-anchor="end">chain4</text>
<path d="M150,294 H701.6 Q705.6,294 705.6,298 V324 Q705.6,328 701.6,328 H150 Z" fill="#2563eb"/>
<text x="715.6" y="316.0" font-size="14" font-weight="bold" fill="#1f2933">463</text>
<line x1="150" y1="80" x2="150" y2="334" stroke="#52606d" stroke-width="1.5"/>
<text x="24" y="396" font-size="14" fill="#1f2933">Total 2,319 · longest 464 · shortest 463 · spread 1 · mean 463.8 — 4 × 464 + 1 × 463 is the most even integer split of 2,319 cells over 5 chains.</text>
</svg>
